<?xml version="1.0" encoding="UTF-8"?><svg id="Ebene_2" xmlns="http://www.w3.org/2000/svg" viewBox="0 0 88.5 113.7"><defs><style>.cls-1{fill:#1d1d1b;}</style></defs><g id="Ebene_1-2"><path class="cls-1" d="M0,113.7V0h37.05c26.85,0,43.8,6.9,43.8,25.5,0,14.85-12.15,24.9-32.55,27.3v.3c24.3.15,40.2,9,40.2,27.3,0,20.55-16.95,33.3-47.1,33.3H0ZM35.85,49.65c15,0,24.6-7.65,24.6-20.85s-9.9-20.4-25.95-20.4h-15v41.25h16.35ZM35.4,105.3c20.4,0,31.65-7.5,31.65-24.3s-11.85-23.55-30.75-23.55h-16.8v47.85h15.9Z"/></g></svg>
