<?xml version="1.0" encoding="UTF-8"?><svg id="Ebene_2" xmlns="http://www.w3.org/2000/svg" viewBox="0 0 337.74 425.8"><g id="Ebene_1-2" fill="#000" stroke="#000" stroke-width="4" stroke-linejoin="round"><g id="_94hRkc.tif"><path d="M337.74,0l-.47,4.28c-.76.53-16.81.43-18.64.1s-4.41-2.25-4.36-4.38h23.47Z"/><path d="M206.43,49.44c1.21.16.79,0,1.04-.69,3.03-8.34,4.7-27.54,15.68-28.77,4.99-.56,16.43-.49,21.49-.02,5.53.52,6.78,5.92,7.88,10.6,4.56,19.52,3.22,42.43,3.59,62.4,5.1,7.23,17.15,16.08,18.16,25.21.42,3.74-1.03,7.05-.19,10.68,18.7,20.6,34.64,39.8,37.69,68.69,2.59,24.51,1.7,50.93,3.5,75.9,2.05,28.31,7.25,57.9,8.5,85.89.4,9.05-.61,18.01-3.38,26.62-9.47,29.42-27.11,28.35-54.31,30.08-1.91.12-6.02-.41-7.42.07s-.92,6.52-2.82,8.16c-.87.75-5.24,1.19-6.71,1.28-2.37.15-12.88.48-14.5.03-3.33-.93-4.59-4.6-5.82-7.46l-39.6,1.44c-5,.06-10.02-.14-15.02-.04-12.09.25-23.83.25-35.91,0-13.87-.28-27.65-.24-41.5-1.31-.89.14-2.17,6.18-5.19,7.1-2.17.66-15.41.5-18.24.22-5.46-.55-5.4-4.33-6.29-8.94-3.54-.34-7.16-.78-10.7-1.03-25.51-1.82-39.66-.37-51.26-26.64-10.27-23.25-2.26-54.59.09-79.5,2.11-22.41,3.94-44.99,5.02-67.4s-.85-45.58,7.1-67.32c6.49-17.76,20.3-31.51,32.07-45.83.92-3.25-.43-6.45-.23-9.72.59-9.7,12.22-18.33,17.86-25.58l.58-33.38c1.2-9.77,1-20.09,3.26-29.7.87-3.69,2.55-9.97,6.98-10.49,4.8-.57,17.65-.53,22.48,0,10.79,1.21,12.63,20.18,15.49,28.47.17.48.06,1.15.73,1,11.36-23.48,36.37-45.22,63.26-30.05,11.4,6.43,21.33,18.18,26.64,30.05ZM188.95,37.45c-3.85-8.77-10.6-17.66-20.45-19.74-16.69-3.53-28.21,5.1-34.48,19.99l8.15-5.33c12.74-6.49,26.68-6.42,39.3.33,1.02.54,7.11,5.1,7.48,4.75ZM100.32,22.47c-5.41-.8-12.61.59-18.23,0l4.72,11.51c5.03,16.42,7.48,33.49,10.04,50.44l10.21-.02c.37-6.87,1.42-13.77,3.36-20.36.77-2.62,3.56-8.18,3.66-10.36.19-4.06-4.97-20.41-6.94-24.55-1.43-3.01-3.15-6.11-6.83-6.66ZM241.38,22.47h-18.23c-3.52,0-6.13,4.9-7.33,7.65-1.88,4.33-6.63,19.52-6.65,23.76,0,1.75,3.6,10.35,4.31,13.22,1.33,5.39,2.09,10.94,2.5,16.48l.66.69,10.25-.38c2.39-16.58,4.45-34.87,9.97-50.71,1.28-3.66,3.29-7.05,4.51-10.72ZM94.07,84.4c-3.13-17.76-4.58-38.68-11.89-55.28-3.5-7.94-5.89-8.66-8.33.33-2.85,10.49-2.63,21.95-3.76,32.7l-.48,28.24c2.68-.88,4.46-2.94,7.15-4.08,1.11-.47,5.17-1.91,6.08-1.91h11.23ZM229.39,84.4h11.73c.72,0,5.58,1.93,6.58,2.41,1.97.95,3.77,2.47,5.65,3.58-.14-15.93.42-32.36-1.5-48.19-.52-4.26-2.11-15.26-4.54-18.43s-5.18,3.5-6.02,5.35c-1.95,4.28-3.47,9.74-4.66,14.32-3.48,13.41-5.29,27.26-7.24,40.96ZM124.53,84.4c-.32-15.39.81-31.04,6.12-45.57l5.36-10.87c-16.18,14.03-25.04,35.2-26.46,56.44h14.98ZM199.18,84.4h12.48c.31,0,.88-.27,1.27-.26l.5-.99c-1.6-20.6-10.32-41.04-25.98-54.68,1.28,3.03,3.13,5.81,4.37,8.86,4.09,10,6.08,22.55,6.63,33.32.19,3.68-.62,9.22-.02,12.51.1.56.25.93.75,1.25ZM127.03,84.4h68.16c.71-.44.69-1,.77-1.72.9-7.69-.78-21.48-2.26-29.25-1.6-8.41-2.52-10.88-9.59-15.88-13.73-9.72-31.91-9.68-45.55.2-6.19,4.49-7.16,6.3-8.79,13.69-2.34,10.63-2.76,22.1-2.74,32.97ZM150,86.9h-67.16c-3.81,0-11.44,6.08-14.23,8.74l-11.34,13.06c1.22,18.42,5.71,45.45,22.26,56.42,7.64,5.07,18.4,7.99,27.42,9.53,14.05,2.39,28.83,2.8,43.05,3.64v-91.4ZM170.47,192.28v-104.63l-.75-.75h-16.73l-.5,105.38h17.98ZM240.63,86.9h-67.66l.5,91.4c19.12-1.6,40.37-1.32,58.69-7.48,27.36-9.2,31.99-36.41,33.93-62.02-.26-1.18-11.04-13.17-12.72-14.67-2.93-2.63-8.89-6.63-12.74-7.23ZM55.12,111.88c-1.17-.26-.8.16-1.12.64-5.15,7.93,1.43,29.66,5.03,38.15,12.46,29.41,36.16,29.07,64.25,33.12l26.71,1.5v-4.5c-15.54-.59-31.17-1.24-46.45-4.23-24.94-4.87-36.7-13.58-44.06-38.33-2.51-8.43-4.2-17.56-4.36-26.35ZM173.47,185.29c21.35-1.85,45.39-1.46,65.67-8.98,18.81-6.98,26.38-23.32,30.45-41.96,1.59-7.26,3.29-15.64-.26-22.48-.67.08-.88.68-.97,1.27-1.13,7.04-1.37,13.74-3.16,20.81-6.95,27.37-18.22,37.35-45.78,42.61-15.14,2.89-30.57,3.51-45.95,4.23v4.5ZM147,235.98v-9.99c0-.95,2.29-.85,2.99-.25.87-5.16-1.03-3.47-3.51-5.72-1.72-1.56-2.3-3.77-2.49-6-.32-3.74-.48-15.35,1.29-18.23,1.08-1.75,4.13-2.93,4.48-3.51.63-1.03.07-3.25.24-4.51-17.73-.68-35.96-1.62-53.34-5.33-11.18-2.39-22.45-5.89-30.31-14.64-1.06-.17-.59.17-.79.68-3.61,9.06-5.89,16.33-12.45,24.02-2.36,2.77-14.4,13.93-17.68,13.23-3.9-.84,5.18-5.57,5.87-6.06,12-8.66,18.58-20.52,22.62-34.63-6.91-9.91-10.62-21.48-13.29-33.2-14.02,15.44-27.62,30.71-33.31,51.33-6.13,22.23-3.05,48.31-5.11,71.3l-2.02,29.44-8,77.4c-.3,12.07,3.03,23.94,9.3,34.19,12.61,20.63,33.12,15.72,54.02,18.41l1.04-.63-.99-7.44-.75-.75c-13.35-.54-30.61,2.27-40.14-9.3-3.9-4.74-6.08-12.4-6.5-18.47-1.52-22.18,1.16-46.1.04-68.47-7.8-13.95-5.63-34.34-3.45-49.86.97-6.91,2.94-16.18,10.44-18.53,6.16-1.93,19.27.03,26.18.26,21.69.72,43.31,1.52,64.91,2.5,6,.27,12.51-.16,18.5.48,6.84.73,8.88,7.32,9.76,13.22v126.9c-1.13,12.93-10.3,21.77-23.22,22.73-10.45.77-21.66-1.35-32.23-.52l1.06,8.93c10,1.19,20.11,1.14,30.17,1.53,32.92,1.3,64.02.56,96.83-1,5.89-.28,11.83-.32,17.72-.51-.06-1.7,1.79-8.38.55-9.24l-33.25.8c-13.98-1.1-22.29-11.12-23.22-24.72v-123.9c.69-5.45,2.47-13.01,8.88-14.1,9.21-1.56,21.28-.69,30.86-1.1,22.7-.98,45.64-2.61,68.37-3.04,12.38-.23,17.88.42,20.9,13.6,3.56,15.53,5.37,39.78-2.18,54.07-.9,22.02,1.27,45.07.04,66.97-.9,16.06-6.9,28.23-24.25,30.19l-21.75.72-.97,8.28c10.91-.75,22.86-.46,33.56-2.65,25.43-5.21,30.01-34.58,28.36-56.54-2.63-34.83-7.63-69.38-9.51-104.36-1.28-23.88.86-52.04-7.46-74.45-6.24-16.8-19.19-30.33-30.72-43.68l-4.86,16.6c-2.4,5.42-4.55,11.01-8.27,15.71-.9,3.02,5.14,15.59,6.99,18.77,4.05,6.95,8.72,12.05,15.22,16.74.83.6,9.63,5.05,5.85,6.06-1.32.35-7.3-3.76-8.65-4.77-10.61-7.96-18.21-20.42-21.52-33.17-.76-.2-.83.2-1.25.49-1.7,1.17-3.52,3.44-5.58,4.91-6.64,4.73-14.74,7.08-22.62,8.84-17.86,3.98-36.68,4.85-54.93,5.73l.08,4.93c1.43.12,3.42,1.9,4.15,3.09,1.75,2.85,1.63,14.99,1.26,18.7-.31,3.09-1.19,4.55-3.52,6.48-1.78,1.48-2.5.17-1.97,4.26.98.03,2.54-.35,2.93.82-.59,3.93,2.27,10.71-2.96,11.47.11,13.14-.04,26.28.01,39.42.03,9.19.56,17.7-2.74,26.69-3.25,8.87-11.11,12.52-16.16,2.7-5.36-10.45-3.33-22.2-4.58-33.38l.02-34.48c.07-1.44-2.73-1.63-3-2.5ZM150,218.75v-18.73c0-2.72,8.08-2.24,9.92-2.31l.86-1.96,1.74.25.76,1.81c3.39.35,9.31-1.69,9.69,3.2l.49,17.74c1.7.04,2.65-2.51,2.87-3.86.47-2.8.44-15.32-.66-17.58-.39-.82-2.15-2.21-3.07-2.42-3.06-.69-17.25-.46-20.89-.13-2.31.21-4.3,1.34-4.69,3.8-.49,3.12-.42,13.7-.04,16.96.2,1.75,1.02,3.47,3.01,3.23ZM159.99,200.77h-7.49v25.47c6.08.38,12.28,1.15,18.26-.47l-.28-25h-7.49c-.31,1.47.94,7.02-1.25,7.01-3.05-.23-1.18-6.45-1.75-7.01ZM173.96,228.24c-8.08,1.46-16.37,1.33-24.46,0,.31,1.62-.8,6.28.84,6.9,3.12,1.17,15.08.91,18.87.59,1.38-.12,2.77-.6,4.14-.84l.63-.48-.02-6.16ZM170.97,238.23c-6.19.37-12.29.69-18.48,0,.11,7.91-.13,15.84-.02,23.75.16,11.43-.4,27.23,2.46,38,3.12,11.74,10.04,13.34,13.9.8.63-2.05,2.14-7.99,2.14-9.85v-52.69ZM239.88,311.65l-1.01-36.22c.52-5.57,9.5-3.64,13.76-3.71,3.06-.05,7.25-1.92,9.34,1.6l1.36,37.62c10.81-1.33,25.69.75,33.18-8.82,5.89-7.52,4.21-16.43,3.79-25.18-.54-11.47.02-26.07-9.01-34.47l-60.13,2.28c-8.31.31-16.7.71-24.97,1-3.35.12-7.33-.39-10.53-.04-.75.08-1.25.05-1.71.77,2.67,4.5,3.47,9.86,3.98,14.99,1.14,11.56-.95,31.13,5.29,40.66,7.12,10.87,25.27,9.39,36.66,9.54ZM262.84,318.14c18.18-1.44,38.82.47,44.41-21.27,2.35-9.16.43-38.79-3.22-47.65-1.65-4-3.52-5.83-7.85-6.63-.66-.12-.98-.93-.87.38,4.07,4.58,5.49,11.14,6.42,17.06,1.57,10.04,3.44,31.48-.99,40.32-7.14,14.25-24.56,11.52-37.86,13.32l-.03,4.47ZM28.16,242.73c-9.73.47-10.64,14.74-11.48,22.22-1.21,10.85-2.91,27.2,1.25,37.2,7.35,17.66,26.8,15.59,42.68,17.49l-.07-4.18-.75-.75c-15.99-.99-34.94.02-38.9-19.52-2.02-9.94.39-38.99,4.83-48.16.35-.72,2.79-3.98,2.43-4.3ZM130.03,246.23l-39.22-1.48c-15.88-.6-32.01-1.69-47.89-2.04-2.08-.05-9.38-.34-10.75.28-1.8.81-4.67,6.16-5.39,8.09-3.03,8.2-5.04,34.68-3.48,43.21,3.39,18.57,22.56,16.88,37.33,17.86l1.1-37.1c.5-1.06,1.53-1.65,2.67-1.83,3.13-.49,12.13-.35,15.44-.02,2.26.23,4.36.68,4.72,3.27l-.47,36.68c11.32-.88,28.71.99,36.17-9.52,6.69-9.43,4.27-32.56,5.84-44.61.58-4.42,1.71-8.93,3.93-12.79ZM84.09,320.14c11.52-.27,26.01.37,35.91-6.29,19.85-13.36,7.89-44.08,15.93-62.97.4-.94,2.45-2.71,1.58-3.4-4.91-3.95-6.77,2.43-7.74,6.23-6.5,25.52,8.37,57.14-28.96,61.43l-16.72.5v4.5ZM239.88,319.14l-.07-4.18-.75-.75c-18.8.03-38.84.71-42.06-22.35-1.28-9.14-.69-19.14-1.56-28.4-.28-3.01-1.86-16.16-4.83-17.17l-4.65.94c12.09,21.07-5.42,59.72,25.08,69.06,8.96,2.74,19.54,2.51,28.85,2.86ZM187.45,259.7c-.49-3.45-1.34-7.02-3.24-9.98-1.77,2.38-2.48,5.76-2.78,8.66l6.02,1.32ZM136.52,259.71c1.2.06,5.02-.12,5.44-1.32s-.95-7.59-2.2-8.17c-1.02-.24-.67.42-.98.98-1.44,2.6-2.22,5.5-2.26,8.5ZM142.01,261.7l-5.99.5c-.31,4.21-.78,8.5-1.02,12.71-.57,9.81.53,19.3-3.39,28.57-7.78,18.44-28.05,19.29-45.52,19.14-.12,1.08.93,1.51,1.26,2.49.71,2.13,2.18,13.43,2.06,15.67-.05.91-.54,2.57-1.08,3.31-1.11,1.54-3.39,1.3-3.77,2.73l.03,2.77,2.77.48c.55,3.83,2.47,9.84-1.78,11.86l3,41.1c6.41.62,12.81.34,19.25.48,9.02.2,15.98,2.06,24.35-3.07,4.46-2.74,9.84-10.33,9.84-15.63v-123.11ZM181.46,261.7v120.61c0,11.33,10.4,21.67,21.7,21.75l32.66-1.09c.33-.67.5-1.42.57-2.17,1.15-12.46,1.42-24.98,2-37.46.05-.99.6-2.04.54-3.01-.08-1.33-2.46-.97-2.95-2.59-.41-1.35-.38-9.45.75-10.19l2.65.04c1.02-4.72-1.61-3.11-3.51-5.23-.62-.69-1.41-2.66-1.46-3.57-.16-2.5.96-11.69,1.52-14.38.23-1.12.94-1.72.96-2.79-14.97-.43-32.87-.27-42.05-14.12-2.85-4.3-4.5-9.07-5.32-14.16l-1.55-31.16-6.49-.5ZM260.35,319.14l-.6-44.1-1.68-1.36-15.88.58c-1.2.39-.89,3.08-.84,4.2.33,7.75.86,15.69,1.04,23.43.13,5.58-.14,11.18-.02,16.75l17.98.5ZM63.12,321.14h17.98l.99-44.94c-.59-.56-14.5-.75-16.25-.53-2.3.29-1.73,1.86-2.21,3.78l-.51,41.7ZM259.85,402.55c14.21-1.21,32.62,2.95,39.88-12.81,4.38-9.51,3.45-21.08,3.59-31.37.2-15.33-.21-30.67,0-45.99l-.77-1.71c-9.29,9.71-23.84,8.72-36.2,9.98.6,1.1,1.61,2.07,1.88,3.35.52,2.51-1.12,16.72-2.66,18.59-1.41,1.71-4.16,1.26-3.22,5.02.98.04,2.54-.35,2.93.82-.1,3.93,1.28,9.35-2.94,11.52l-2.49,42.6ZM20.67,311.65v66.67c0,1.66,1.89,8.05,2.62,9.87,7.08,17.83,26.36,13.14,41.83,14.35l-1.99-19.73-.98-20.39c-2.01-.84-3.52-2.22-3.52-4.58v-7.74h2.49c1.22-4.18-2.63-4.09-3.75-6.98-.79-2.03-2.29-13.43-2.2-15.7s1.74-3.72,2.96-5.28c-13.17-1.75-27.1-.71-37.45-10.49ZM262.85,325.38v15.73c.85-.21,1.16-1.13,1.37-1.88.58-2.03,1.74-11.28,1.66-13.35-.08-2.2-1.54-4.01-3.76-4.28-3.62-.44-8.68.09-12.52.04-3.29-.04-9.32-2.03-10.88,2.56-.77,2.26-1.92,14.07-1.07,15.89.27.59,1.02,1.14,1.74,1,1-2.83.62-15.07,2.36-16.51,2.37-1.95,6.79-.34,9.28-.96.57-.14.61-1.35,1.1-1.5,1.55-.5,1.45,1.34,2.09,1.5,2.39.6,6.64-.99,8.64,1.74ZM84.59,343.61c2.2-1.06,2.08-2.61,2.01-4.76-.07-2.29-1.15-11.96-2.09-13.4-.81-1.25-1.7-1.66-3.17-1.83-4.11-.48-13.28-.37-17.51,0-3.13.27-6.18.92-6.17,4.7,0,4.25,1.79,10.45,2.45,14.79.71.72.9-.05.99-.74.49-3.87-1.6-11.65-.24-14.73,1.22-2.76,6.18-.93,8.38-1.5.62-.16.24-1.55,2.12-1.56.92,0,.63.94,1.07,1.04,2.31.53,8.04-1,9.61,1.3s1.65,16.03,2.54,16.69ZM250.86,326.13c-1.51.31-6.92-.77-7.42.82l-1.57,21.65c5.94.75,12.03.75,17.97,0l.43-21.65c-.47-1.42-5.11-.82-6.45-.6-1.32.92.78,7.47-2.2,6.79-2.55-.58,0-4.99-.76-7.01ZM70.11,328.63h-6.99l1.22,22.01c.35.52.97.43,1.5.49,1.86.23,15.63.09,16.2-.58.33-7.35-1.16-14.64-1.94-21.92h-7.49c-.14,1.13,1.61,7.48-.74,6.99-1.86-1.55-1.7-4.7-1.75-6.99ZM262.32,357.07c.67-8.83.87-5.85-5.72-5.48-6.11.34-12.2-.13-18.22-.99.31,1.72-.81,5.51.85,6.4,1.01.54,6.35,1.03,7.87,1.12,5.11.29,10.23-.12,15.23-1.05ZM85.53,359.04c-.08-1.31.64-6.06-.73-6.39-.46-.11-2.58.79-3.51.9-6.9.81-13.31.52-20.17-.45l.74,6.01c2.71,1.83,22.58,1.23,23.68-.06ZM259.85,360.09c-6.12.81-12.35.66-18.48,0-1.46,20.98-1.27,42.3-5.49,62.93l17.23-.49c.68,0,.86-.32,1.16-.83.84-1.42,1.71-7.92,2-9.98,2.42-16.93,2.1-34.57,3.57-51.62ZM83.09,362.59c-6.2.22-12.29.84-18.48,0,1,14.87,1.57,29.85,3.57,44.63.33,2.47,1.75,13.8,3.13,14.85,5.75,1.25,11.84.93,17.77.95-3.61-19.89-5.05-40.22-5.99-60.43ZM234.38,417.53h-2.49s1,3.49,1,3.49c1.16,1.1,1.43-3.06,1.49-3.49Z"/></g></g></svg>