<?xml version="1.0" encoding="UTF-8"?><svg id="Ebene_2" xmlns="http://www.w3.org/2000/svg" viewBox="0 0 662.3 118.59"><defs><style>.cls-1{letter-spacing:0em;}.cls-2,.cls-3{fill:#fff;}.cls-4{letter-spacing:0em;}.cls-5{fill:#1e1e1c;}.cls-6{letter-spacing:-.12em;}.cls-7{letter-spacing:-.02em;}.cls-8{letter-spacing:-.03em;}.cls-9{letter-spacing:-.02em;}.cls-10{letter-spacing:-.02em;}.cls-11{letter-spacing:-.01em;}.cls-12{letter-spacing:-.01em;}.cls-13{letter-spacing:-.04em;}.cls-14{letter-spacing:-.04em;}.cls-3{font-family:SangBleuSunrise-Bold, 'SangBleu Sunrise';font-size:53.79px;font-weight:700;}</style></defs><g id="Ebene_1-2"><rect class="cls-5" width="662.3" height="118.59"/><text class="cls-3" transform="translate(90.37 78.04)"><tspan class="cls-14" x="0" y="0">Y</tspan><tspan class="cls-13" x="39.73" y="0">E</tspan><tspan class="cls-9" x="73.44" y="0">S</tspan><tspan x="107.33" y="0">, </tspan><tspan class="cls-11" x="138.21" y="0">I</tspan><tspan class="cls-12" x="156.33" y="0">&apos;</tspan><tspan class="cls-8" x="168.19" y="0">L</tspan><tspan x="200.33" y="0">L </tspan><tspan class="cls-6" x="247.82" y="0">T</tspan><tspan class="cls-10" x="280.37" y="0">A</tspan><tspan class="cls-4" x="320.37" y="0">K</tspan><tspan x="364.01" y="0">E </tspan><tspan class="cls-7" x="413.7" y="0">I</tspan><tspan class="cls-1" x="431.31" y="0">T</tspan></text><polygon class="cls-2" points="82.57 69.69 84.63 54.6 77.25 57.2 57.4 54.46 81 22.94 66.72 29.45 49.24 51.48 33.36 32.82 28.59 24.21 19.7 36.76 25.85 39.26 37.53 51.72 6.51 47.45 18.01 56.73 41.8 60.85 26.33 80.34 21.38 84.44 30.68 95.65 33.29 86.64 49.71 64.72 71.25 87.7 76.25 83.23 59.87 63.98 75.87 66.74 82.57 69.69"/><polygon class="cls-2" points="629.82 89.31 640.29 78.26 632.78 76.06 618.24 62.27 655.8 50.41 640.4 47.38 613.36 55.08 611.34 30.67 612.48 20.89 597.93 25.9 601.48 31.52 603.7 48.46 580.98 26.9 584.92 41.14 601.85 58.36 577.92 65.18 571.51 65.62 572.52 80.15 579.9 74.35 606.02 66.12 610.12 97.34 616.79 96.63 614.7 71.43 626.09 83.01 629.82 89.31"/></g></svg>
