<?xml version="1.0" encoding="UTF-8"?><svg id="Ebene_2" xmlns="http://www.w3.org/2000/svg" viewBox="0 0 649.29 78.82"><defs><style>.cls-1{fill:#ffffff;font-family:SangBleuSunrise-Bold, 'SangBleu Sunrise';font-size:53.79px;font-weight:700;}.cls-2{letter-spacing:0em;}.cls-3{letter-spacing:0em;}.cls-4{fill:#ffffff;}.cls-5{letter-spacing:-.12em;}.cls-6{letter-spacing:-.02em;}.cls-7{letter-spacing:-.03em;}.cls-8{letter-spacing:-.02em;}.cls-9{letter-spacing:-.02em;}.cls-10{letter-spacing:-.01em;}.cls-11{letter-spacing:-.01em;}.cls-12{letter-spacing:-.04em;}.cls-13{letter-spacing:-.04em;}@keyframes star-spin{to{transform:rotate(360deg)}}.star-spin{transform-origin:39px 38px;animation:star-spin 3s linear infinite}.star-spin-right{transform-origin:607px 38px;animation:star-spin 3s linear infinite}@media(prefers-reduced-motion:reduce){.star-spin,.star-spin-right{animation:none}}</style></defs><g id="Ebene_1-2"><text class="cls-1" transform="translate(83.86 57.15)"><tspan class="cls-13" x="0" y="0">Y</tspan><tspan class="cls-12" x="39.73" y="0">E</tspan><tspan class="cls-8" x="73.44" y="0">S</tspan><tspan x="107.33" y="0">, </tspan><tspan class="cls-10" x="138.21" y="0">I</tspan><tspan class="cls-11" x="156.33" y="0">&apos;</tspan><tspan class="cls-7" x="168.19" y="0">L</tspan><tspan x="200.33" y="0">L </tspan><tspan class="cls-5" x="247.82" y="0">T</tspan><tspan class="cls-9" x="280.37" y="0">A</tspan><tspan class="cls-3" x="320.37" y="0">K</tspan><tspan x="364.01" y="0">E </tspan><tspan class="cls-6" x="413.7" y="0">I</tspan><tspan class="cls-2" x="431.31" y="0">T</tspan></text><g class="star-spin"><polygon class="cls-4" points="76.06 48.79 78.12 33.71 70.74 36.31 50.89 33.57 74.49 2.05 60.21 8.55 42.73 30.58 26.86 11.93 22.09 3.32 13.19 15.86 19.35 18.37 31.03 30.83 0 26.56 11.5 35.84 35.29 39.96 19.83 59.45 14.88 63.54 24.17 74.75 26.79 65.74 43.21 43.83 64.74 66.8 69.74 62.33 53.36 43.08 69.36 45.85 76.06 48.79"/></g><g class="star-spin-right"><polygon class="cls-4" points="623.31 68.41 633.78 57.36 626.27 55.17 611.74 41.37 649.29 29.52 633.89 26.48 606.85 34.19 604.83 9.77 605.97 0 591.43 5.01 594.97 10.63 597.19 27.56 574.48 6.01 578.41 20.25 595.34 37.47 571.41 44.29 565 44.73 566.02 59.25 573.4 53.46 599.51 45.22 603.61 76.45 610.28 75.73 608.2 50.54 619.58 62.11 623.31 68.41"/></g></g></svg>
