<?xml version="1.0" encoding="UTF-8"?>
<svg id="Ebene_2" xmlns="http://www.w3.org/2000/svg" viewBox="0 0 795.89 237.04">
  <defs>
    <style>
      .cls-1{fill:#1e1e1c;transform-origin:center;transform-box:fill-box;animation:cross-spin 8s linear infinite}
      .cls-2{letter-spacing:-.04em}
      .cls-3{letter-spacing:-.05em}
      .cls-4{fill:#1d1d1b;font-family:SangBleuSunrise-Bold,'SangBleu Sunrise';font-size:85px;font-weight:700}
      @keyframes cross-spin{from{transform:rotate(0deg)}to{transform:rotate(360deg)}}
    </style>
  </defs>
  <g id="Ebene_1-2">
    <text class="cls-4" transform="translate(34.6 146.51)"><tspan x="0" y="0">DO N</tspan><tspan class="cls-3" x="243.78" y="0">O</tspan><tspan class="cls-2" x="318.15" y="0">T</tspan><tspan x="376.38" y="0" xml:space="preserve"> PRESS</tspan></text>
    <polygon class="cls-1" points="72.08 216.42 80.43 207.61 74.44 205.86 62.85 194.86 92.79 185.41 80.52 182.99 58.96 189.14 57.35 169.67 58.25 161.88 46.66 165.87 49.48 170.35 51.26 183.86 33.14 166.67 36.28 178.02 49.78 191.75 30.7 197.19 25.59 197.54 26.4 209.12 32.28 204.5 53.11 197.94 56.38 222.83 61.69 222.26 60.03 202.17 69.11 211.4 72.08 216.42"/>
    <polygon class="cls-1" points="46.49 71.09 54.84 62.28 48.85 60.53 37.26 49.53 67.2 40.08 54.92 37.66 33.36 43.8 31.75 24.34 32.66 16.55 21.07 20.54 23.89 25.02 25.67 38.52 7.55 21.33 10.69 32.69 24.19 46.42 5.11 51.85 0 52.21 .81 63.79 6.69 59.17 27.51 52.6 30.78 77.5 36.1 76.93 34.44 56.84 43.52 66.07 46.49 71.09"/>
    <polygon class="cls-1" points="165.96 216.42 174.3 207.61 168.31 205.86 156.72 194.86 186.67 185.41 174.39 182.99 152.83 189.14 151.22 169.67 152.13 161.88 140.53 165.87 143.36 170.35 145.13 183.86 127.02 166.67 130.16 178.02 143.65 191.75 124.57 197.19 119.47 197.54 120.27 209.12 126.16 204.5 146.98 197.94 150.25 222.83 155.57 222.26 153.9 202.17 162.98 211.4 165.96 216.42"/>
    <polygon class="cls-1" points="126.33 68.72 134.68 59.91 128.69 58.16 117.1 47.16 147.04 37.71 134.77 35.29 113.21 41.44 111.6 21.97 112.5 14.18 100.91 18.17 103.73 22.65 105.51 36.15 87.39 18.97 90.53 30.32 104.03 44.05 84.95 49.49 79.84 49.84 80.65 61.42 86.53 56.8 107.36 50.24 110.63 75.13 115.94 74.56 114.28 54.47 123.36 63.7 126.33 68.72"/>
    <polygon class="cls-1" points="261.11 216.42 269.46 207.61 263.47 205.86 251.88 194.86 281.83 185.41 269.55 182.99 247.99 189.14 246.38 169.67 247.29 161.88 235.69 165.87 238.52 170.35 240.29 183.86 222.18 166.67 225.32 178.02 238.81 191.75 219.73 197.19 214.63 197.54 215.43 209.12 221.32 204.5 242.14 197.94 245.41 222.83 250.73 222.26 249.06 202.17 258.14 211.4 261.11 216.42"/>
    <polygon class="cls-1" points="206.81 72.49 215.16 63.68 209.17 61.93 197.58 50.93 227.52 41.48 215.24 39.06 193.68 45.2 192.07 25.74 192.98 17.94 181.39 21.94 184.21 26.42 185.99 39.92 167.87 22.73 171.01 34.09 184.51 47.82 165.43 53.25 160.32 53.6 161.13 65.19 167.01 60.56 187.83 54 191.1 78.89 196.42 78.33 194.76 58.24 203.84 67.47 206.81 72.49"/>
    <polygon class="cls-1" points="363.99 216.42 372.34 207.61 366.35 205.86 354.76 194.86 384.7 185.41 372.42 182.99 350.86 189.14 349.25 169.67 350.16 161.88 338.57 165.87 341.39 170.35 343.17 183.86 325.05 166.67 328.19 178.02 341.69 191.75 322.61 197.19 317.5 197.54 318.31 209.12 324.19 204.5 345.02 197.94 348.28 222.83 353.6 222.26 351.94 202.17 361.02 211.4 363.99 216.42"/>
    <polygon class="cls-1" points="424.8 65.4 433.15 56.59 427.16 54.84 415.57 43.84 445.51 34.39 433.23 31.97 411.67 38.11 410.06 18.65 410.97 10.86 399.38 14.85 402.2 19.33 403.98 32.83 385.86 15.64 389 27 402.5 40.73 383.42 46.16 378.31 46.52 379.12 58.1 385 53.47 405.83 46.91 409.1 71.8 414.41 71.24 412.75 51.15 421.83 60.38 424.8 65.4"/>
    <polygon class="cls-1" points="274.97 66.81 283.32 57.99 277.33 56.24 265.74 45.24 295.69 35.8 283.41 33.37 261.85 39.52 260.24 20.05 261.15 12.26 249.55 16.25 252.38 20.74 254.15 34.24 236.04 17.05 239.18 28.41 252.67 42.13 233.59 47.57 228.49 47.92 229.29 59.5 235.18 54.88 256 48.32 259.27 73.21 264.59 72.64 262.92 52.56 272 61.78 274.97 66.81"/>
    <polygon class="cls-1" points="460.44 216.42 468.78 207.61 462.79 205.86 451.2 194.86 481.15 185.41 468.87 182.99 447.31 189.14 445.7 169.67 446.61 161.88 435.01 165.87 437.84 170.35 439.61 183.86 421.5 166.67 424.64 178.02 438.13 191.75 419.05 197.19 413.95 197.54 414.76 209.12 420.64 204.5 441.46 197.94 444.73 222.83 450.05 222.26 448.38 202.17 457.46 211.4 460.44 216.42"/>
    <polygon class="cls-1" points="354.57 70.28 362.92 61.47 356.93 59.72 345.34 48.72 375.28 39.27 363.01 36.85 341.45 43 339.84 23.53 340.75 15.74 329.15 19.73 331.98 24.21 333.75 37.72 315.64 20.53 318.78 31.88 332.27 45.61 313.19 51.05 308.08 51.4 308.89 62.98 314.78 58.36 335.6 51.8 338.87 76.69 344.19 76.12 342.52 56.03 351.6 65.26 354.57 70.28"/>
    <polygon class="cls-1" points="557 215.82 565.35 207.01 559.36 205.26 547.77 194.26 577.71 184.81 565.43 182.39 543.87 188.54 542.26 169.07 543.17 161.28 531.58 165.27 534.4 169.75 536.18 183.26 518.06 166.07 521.2 177.42 534.7 191.15 515.62 196.59 510.51 196.94 511.32 208.52 517.2 203.9 538.02 197.34 541.29 222.23 546.61 221.66 544.95 201.57 554.03 210.8 557 215.82"/>
    <polygon class="cls-1" points="492.72 69.53 501.07 60.72 495.08 58.97 483.49 47.97 513.43 38.53 501.15 36.1 479.59 42.25 477.98 22.78 478.89 14.99 467.3 18.98 470.12 23.46 471.9 36.97 453.78 19.78 456.92 31.13 470.42 44.86 451.34 50.3 446.23 50.65 447.04 62.23 452.92 57.61 473.75 51.05 477.01 75.94 482.33 75.37 480.67 55.28 489.75 64.51 492.72 69.53"/>
    <polygon class="cls-1" points="652.01 230.63 660.35 221.82 654.36 220.07 642.77 209.07 672.72 199.62 660.44 197.2 638.88 203.35 637.27 183.88 638.18 176.09 626.58 180.08 629.41 184.56 631.18 198.06 613.07 180.88 616.21 192.23 629.7 205.96 610.62 211.4 605.52 211.75 606.32 223.33 612.21 218.71 633.03 212.14 636.3 237.04 641.62 236.47 639.95 216.38 649.03 225.61 652.01 230.63"/>
    <polygon class="cls-1" points="626.84 56.54 635.19 47.73 629.2 45.98 617.61 34.98 647.55 25.53 635.28 23.11 613.72 29.25 612.11 9.79 613.01 1.99 601.42 5.99 604.24 10.47 606.02 23.97 587.91 6.78 591.04 18.14 604.54 31.87 585.46 37.3 580.35 37.65 581.16 49.23 587.05 44.61 607.87 38.05 611.14 62.94 616.45 62.37 614.79 42.29 623.87 51.52 626.84 56.54"/>
    <polygon class="cls-1" points="557 65.18 565.35 56.37 559.36 54.62 547.77 43.62 577.71 34.17 565.43 31.75 543.87 37.89 542.26 18.43 543.17 10.63 531.58 14.63 534.4 19.11 536.18 32.61 518.06 15.42 521.2 26.78 534.7 40.51 515.62 45.94 510.51 46.29 511.32 57.88 517.2 53.25 538.02 46.69 541.29 71.58 546.61 71.01 544.95 50.93 554.03 60.16 557 65.18"/>
    <polygon class="cls-1" points="740.93 226.25 749.28 217.43 743.29 215.68 731.7 204.68 761.64 195.24 749.37 192.81 727.81 198.96 726.2 179.49 727.11 171.7 715.51 175.69 718.34 180.18 720.11 193.68 702 176.49 705.14 187.85 718.63 201.57 699.55 207.01 694.44 207.36 695.25 218.94 701.14 214.32 721.96 207.76 725.23 232.65 730.55 232.08 728.88 212 737.96 221.22 740.93 226.25"/>
    <polygon class="cls-1" points="774.99 54.54 783.34 45.73 777.35 43.98 765.76 32.98 795.7 23.54 783.42 21.11 761.86 27.26 760.25 7.79 761.16 0 749.57 3.99 752.39 8.47 754.17 21.98 736.05 4.79 739.19 16.14 752.69 29.87 733.61 35.31 728.5 35.66 729.31 47.24 735.19 42.62 756.02 36.06 759.28 60.95 764.6 60.38 762.94 40.29 772.02 49.52 774.99 54.54"/>
    <polygon class="cls-1" points="699.51 60.08 707.85 51.27 701.86 49.52 690.28 38.52 720.22 29.07 707.94 26.65 686.38 32.8 684.77 13.33 685.68 5.54 674.08 9.53 676.91 14.01 678.68 27.51 660.57 10.33 663.71 21.68 677.21 35.41 658.13 40.85 653.02 41.2 653.83 52.78 659.71 48.16 680.53 41.59 683.8 66.49 689.12 65.92 687.46 45.83 696.53 55.06 699.51 60.08"/>
  </g>
</svg>
