<?xml version="1.0" encoding="UTF-8"?><svg id="Ebene_2" xmlns="http://www.w3.org/2000/svg" viewBox="0 0 113.92 69.14"><defs><style>.cls-1{fill:#1b1b1a;}</style></defs><g id="Ebene_1-2"><polygon class="cls-1" points="73.03 38.44 105.31 29.98 113.92 29.57 112.97 10.07 102.91 17.62 67.66 27.92 51.16 32.75 .52 47.55 21.02 52.08 57.51 42.51 73.03 38.44"/><polygon class="cls-1" points="42.21 27.15 20.58 19.58 11.71 20.43 14.49 0 25.52 7.26 55.97 19.58 76.37 27.84 107.8 40.55 104.63 48.97 64.76 35.03 42.21 27.15"/><polygon class="cls-1" points="44.24 49.55 13.45 39.5 0 24.97 40.33 36.62 66.17 44.08 91.99 51.55 102.3 49.53 96.63 69.14 88.32 63.95 67.62 57.19 44.24 49.55"/></g></svg>